<svg width="168" height="75" viewBox="0 0 168 75" fill="none" xmlns="http://www.w3.org/2000/svg">
<path d="M22.8984 47.7266V47.8906C22.8984 47.9375 22.8906 47.9844 22.875 48.0312C22.7031 48.3594 22.4922 48.6094 22.2422 48.7812C21.9922 48.9531 21.6797 49.0391 21.3047 49.0391C21.0547 49.0391 20.8672 49.0156 20.7422 48.9688C20.6328 48.9219 20.4844 48.8359 20.2969 48.7109C20.0156 48.7422 19.6953 48.7734 19.3359 48.8047C18.9766 48.8203 18.6172 48.8594 18.2578 48.9219C17.8984 48.9688 17.5547 49.0391 17.2266 49.1328C16.9141 49.2266 16.6484 49.3672 16.4297 49.5547C16.2891 50.6328 16.2109 51.7109 16.1953 52.7891C16.1953 53.8516 16.1797 54.9219 16.1484 56C16.2734 56.3281 16.3594 56.6875 16.4062 57.0781C16.4531 57.4844 16.4844 57.8516 16.5 58.1797C16.6094 58.3672 16.6953 58.5547 16.7578 58.7422C16.8203 58.9453 16.8828 59.1484 16.9453 59.3516C17.0078 59.5547 17.0781 59.75 17.1562 59.9375C17.25 60.125 17.3672 60.2969 17.5078 60.4531C17.6328 60.4531 17.7422 60.4609 17.8359 60.4766C17.9453 60.5078 18.0547 60.5391 18.1641 60.5703V60.7109C18.1641 60.9453 18.2344 61.1172 18.375 61.2266C18.5156 61.3359 18.6719 61.4531 18.8438 61.5781C18.8906 61.75 18.9141 61.9141 18.9141 62.0703C18.9141 62.3359 18.8516 62.5859 18.7266 62.8203C18.6172 63.0547 18.4297 63.2188 18.1641 63.3125C18.0078 63.3125 17.8594 63.2891 17.7188 63.2422C17.5781 63.2109 17.4297 63.1953 17.2734 63.1953C17.1641 63.1953 17.0469 63.2109 16.9219 63.2422C16.8438 63.2109 16.7734 63.1641 16.7109 63.1016C16.6641 63.0547 16.6094 63.0078 16.5469 62.9609C16.4844 62.9141 16.4141 62.875 16.3359 62.8438C16.2734 62.8125 16.1875 62.8047 16.0781 62.8203C16 62.6016 15.875 62.3984 15.7031 62.2109C15.5312 62.0234 15.3203 61.9453 15.0703 61.9766C15.0859 61.9141 15.0938 61.8203 15.0938 61.6953C15.0938 61.4766 15.0469 61.2734 14.9531 61.0859C14.875 60.8984 14.75 60.75 14.5781 60.6406C14.5 60.2812 14.4297 59.8828 14.3672 59.4453C14.3047 59.0234 14.1719 58.6562 13.9688 58.3438C13.9688 57.8906 13.9219 57.4531 13.8281 57.0312C13.7344 56.625 13.6484 56.2031 13.5703 55.7656C13.6328 55.5156 13.6641 55.2344 13.6641 54.9219C13.6641 54.7031 13.6562 54.4922 13.6406 54.2891C13.625 54.0703 13.6172 53.8594 13.6172 53.6562C13.6172 53.4375 13.6328 53.2266 13.6641 53.0234C13.6953 52.8047 13.7734 52.5938 13.8984 52.3906C13.8047 52.2344 13.7422 52.0781 13.7109 51.9219C13.6797 51.75 13.6641 51.5781 13.6641 51.4062C13.6641 51.1406 13.6797 50.8828 13.7109 50.6328L13.8047 49.8828C13.7734 49.8672 13.7188 49.8594 13.6406 49.8594C13.4844 49.8594 13.3516 49.8906 13.2422 49.9531L12.8906 50.1172C12.8125 50.1016 12.7422 50.0938 12.6797 50.0938H12.4688C12.2344 50.0938 12 50.1328 11.7656 50.2109C11.5469 50.2734 11.3516 50.3906 11.1797 50.5625C10.6484 50.5625 10.1172 50.6172 9.58594 50.7266C9.05469 50.8203 8.52344 50.9375 7.99219 51.0781C7.47656 51.2188 6.96094 51.375 6.44531 51.5469C5.92969 51.7031 5.41406 51.8438 4.89844 51.9688C4.77344 52.5781 4.67969 53.1953 4.61719 53.8203C4.55469 54.4297 4.52344 55.0547 4.52344 55.6953V56.2578C4.52344 56.4609 4.53906 56.6562 4.57031 56.8438C4.58594 56.9688 4.625 57.0781 4.6875 57.1719C4.76562 57.2812 4.80469 57.3984 4.80469 57.5234C4.80469 57.6328 4.78125 57.7188 4.73438 57.7812C4.84375 57.9688 5.00781 58.1328 5.22656 58.2734C5.46094 58.1953 5.66406 58.1562 5.83594 58.1562C6.11719 58.1562 6.38281 58.2188 6.63281 58.3438C6.88281 58.4844 7.14844 58.5781 7.42969 58.625C7.36719 58.8438 7.27344 59.0547 7.14844 59.2578C7.02344 59.4766 6.94531 59.7109 6.91406 59.9609C6.85156 59.9922 6.78906 60.0078 6.72656 60.0078C6.67969 60.0078 6.63281 60.0078 6.58594 60.0078C6.53906 60.0234 6.5 60.0547 6.46875 60.1016C6.45312 60.1484 6.46094 60.2422 6.49219 60.3828C6.27344 60.4922 6.05469 60.5625 5.83594 60.5938C5.61719 60.6406 5.39062 60.6719 5.15625 60.6875C4.9375 60.7031 4.71094 60.7109 4.47656 60.7109C4.25781 60.7109 4.03125 60.7188 3.79688 60.7344C3.79688 60.6406 3.77344 60.5625 3.72656 60.5C3.69531 60.4531 3.64844 60.4141 3.58594 60.3828C3.52344 60.3672 3.45312 60.3438 3.375 60.3125C3.3125 60.2812 3.25781 60.2422 3.21094 60.1953C3.08594 60.0859 2.98438 59.9375 2.90625 59.75C2.84375 59.5781 2.77344 59.3906 2.69531 59.1875C2.63281 59 2.5625 58.8125 2.48438 58.625C2.40625 58.4375 2.3125 58.2656 2.20312 58.1094C2.17188 57.7656 2.14844 57.4297 2.13281 57.1016C2.11719 56.7734 2.10938 56.4375 2.10938 56.0938C2.10938 55.4531 2.13281 54.8281 2.17969 54.2188C2.22656 53.5938 2.26562 52.9531 2.29688 52.2969C2.15625 52.1562 1.99219 52.0938 1.80469 52.1094C1.63281 52.125 1.46094 52.1094 1.28906 52.0625C1.10156 51.8281 0.945312 51.5703 0.820312 51.2891C0.695312 50.9922 0.632812 50.6875 0.632812 50.375C0.632812 50.2188 0.65625 50.0547 0.703125 49.8828C0.84375 49.8359 1 49.7891 1.17188 49.7422C1.34375 49.6953 1.4375 49.5703 1.45312 49.3672C1.5625 49.4297 1.69531 49.4609 1.85156 49.4609C2.00781 49.4609 2.16406 49.4375 2.32031 49.3906C2.47656 49.3438 2.63281 49.3047 2.78906 49.2734C2.85156 49.0234 2.89844 48.7812 2.92969 48.5469C2.97656 48.2969 2.98438 48.0391 2.95312 47.7734C3.17188 47.4453 3.3125 47.0859 3.375 46.6953C3.45312 46.3047 3.50781 45.9297 3.53906 45.5703V45.2422C3.53906 45.1328 3.54688 45.0234 3.5625 44.9141C3.59375 44.7422 3.64062 44.5469 3.70312 44.3281C3.76562 44.1094 3.82031 43.9062 3.86719 43.7188C3.94531 43.4219 3.99219 43.1406 4.00781 42.875C4.03906 42.6094 4.05469 42.3359 4.05469 42.0547V41.9609C4.05469 41.8828 4.02344 41.8281 3.96094 41.7969C3.89844 41.75 3.86719 41.6875 3.86719 41.6094L3.89062 41.5625C3.95312 41.0625 4.02344 40.5703 4.10156 40.0859C4.19531 39.5859 4.32031 39.0938 4.47656 38.6094C4.35156 38.25 4.28906 37.8438 4.28906 37.3906C4.28906 36.7969 4.38281 36.2266 4.57031 35.6797C4.47656 35.4297 4.42969 35.1875 4.42969 34.9531C4.42969 34.7656 4.4375 34.5781 4.45312 34.3906C4.48438 34.2031 4.49219 34.0156 4.47656 33.8281C4.63281 33.75 4.75781 33.6406 4.85156 33.5C4.96094 33.3594 5.08594 33.2422 5.22656 33.1484C5.69531 33.1328 6.08594 33.2891 6.39844 33.6172C6.72656 33.9453 6.89062 34.3438 6.89062 34.8125C6.89062 35.1719 6.78906 35.5156 6.58594 35.8438C6.64844 36.1406 6.67969 36.4844 6.67969 36.875C6.67969 37.4531 6.64062 38.0312 6.5625 38.6094C6.48438 39.1875 6.46094 39.7734 6.49219 40.3672C6.39844 40.5859 6.35156 40.8516 6.35156 41.1641C6.36719 41.4766 6.35938 41.7422 6.32812 41.9609C6.29688 42.1797 6.25 42.4062 6.1875 42.6406C6.125 42.8594 6.08594 43.0781 6.07031 43.2969C6.05469 43.6562 6.03906 44.0156 6.02344 44.375C6.02344 44.7344 5.98438 45.0781 5.90625 45.4062C5.875 45.5312 5.82812 45.6406 5.76562 45.7344C5.71875 45.8125 5.67969 45.9062 5.64844 46.0156C5.58594 46.3438 5.5625 46.6797 5.57812 47.0234C5.60938 47.3516 5.60938 47.6875 5.57812 48.0312C5.5625 48.1406 5.53125 48.25 5.48438 48.3594C5.45312 48.4688 5.4375 48.5859 5.4375 48.7109C5.4375 48.7734 5.45312 48.8516 5.48438 48.9453C6.90625 48.8203 8.32031 48.6094 9.72656 48.3125C11.1328 48.0156 12.5469 47.7578 13.9688 47.5391C14.0781 47.3359 14.1328 47.125 14.1328 46.9062C14.1328 46.7812 14.1094 46.6562 14.0625 46.5312C14.2188 46.0156 14.3359 45.5 14.4141 44.9844C14.5078 44.4531 14.5859 43.9297 14.6484 43.4141C14.7109 42.8984 14.7656 42.3828 14.8125 41.8672C14.8594 41.3359 14.9219 40.8125 15 40.2969L15.1406 39.5C15.1875 39.2344 15.25 38.9766 15.3281 38.7266C15.3594 38.6328 15.3906 38.5391 15.4219 38.4453C15.4688 38.3516 15.4922 38.2656 15.4922 38.1875C15.4922 38.1094 15.4453 38.0547 15.3516 38.0234C15.2734 37.9922 15.2344 37.9531 15.2344 37.9062C15.2344 37.875 15.2422 37.8594 15.2578 37.8594C15.2891 37.8438 15.3125 37.8438 15.3281 37.8594C15.4062 37.7188 15.4531 37.5703 15.4688 37.4141C15.4844 37.2578 15.4922 37.1016 15.4922 36.9453C15.5078 36.7891 15.5312 36.6406 15.5625 36.5C15.5938 36.3438 15.6562 36.2031 15.75 36.0781C15.7344 35.9688 15.7031 35.8672 15.6562 35.7734C15.6094 35.6797 15.5859 35.5703 15.5859 35.4453C15.5703 35.4297 15.5703 35.4141 15.5859 35.3984C15.6172 35.2578 15.6328 35.1406 15.6328 35.0469C15.6484 34.9375 15.6562 34.8125 15.6562 34.6719C15.6562 34.4844 15.7422 34.3359 15.9141 34.2266C15.8359 33.9609 15.7812 33.6719 15.75 33.3594C15.7188 33.0469 15.7031 32.7422 15.7031 32.4453C15.7031 32.0391 15.7969 31.7031 15.9844 31.4375C16.1875 31.1562 16.5156 31.0156 16.9688 31.0156C17.2031 31.0156 17.4219 31.0625 17.625 31.1562C17.8438 31.25 18.0234 31.3828 18.1641 31.5547C18.2422 31.9141 18.2812 32.25 18.2812 32.5625C18.2812 32.7812 18.2656 32.9922 18.2344 33.1953C18.2188 33.3828 18.2109 33.5859 18.2109 33.8047C18.2109 33.9766 18.2266 34.1406 18.2578 34.2969C18.2891 34.4375 18.3203 34.5859 18.3516 34.7422C18.2109 34.9609 18.1094 35.2031 18.0469 35.4688C17.9844 35.7344 17.9375 36.0078 17.9062 36.2891C17.8906 36.5703 17.875 36.8594 17.8594 37.1562C17.8594 37.4375 17.8516 37.6953 17.8359 37.9297C17.7891 38.4453 17.7109 38.9531 17.6016 39.4531C17.5078 39.9531 17.3984 40.4531 17.2734 40.9531C17.3203 41.125 17.3438 41.2812 17.3438 41.4219C17.3438 41.7031 17.3047 41.9844 17.2266 42.2656C17.1484 42.5312 17.125 42.7969 17.1562 43.0625C17.0469 43.3438 16.9766 43.6328 16.9453 43.9297C16.9141 44.2109 16.8906 44.5078 16.875 44.8203L16.8281 45.7344C16.8125 46.0312 16.7578 46.3203 16.6641 46.6016C16.6953 46.6797 16.75 46.7266 16.8281 46.7422C16.9219 46.7422 16.9531 46.8047 16.9219 46.9297C17.2812 46.8203 17.6641 46.7734 18.0703 46.7891C18.4766 46.7891 18.8594 46.7891 19.2188 46.7891C19.4531 46.7891 19.6875 46.7891 19.9219 46.7891C20.1562 46.7734 20.3906 46.7422 20.625 46.6953C20.8594 46.6328 21.0938 46.5625 21.3281 46.4844C21.5781 46.3906 21.8203 46.3438 22.0547 46.3438C22.3828 46.3438 22.6328 46.4609 22.8047 46.6953C22.8359 46.8672 22.8594 47.0391 22.875 47.2109C22.8906 47.3828 22.8984 47.5547 22.8984 47.7266ZM40.1719 54.2891C40.125 54.5078 40.0234 54.6875 39.8672 54.8281C39.7266 54.9531 39.5547 55.0547 39.3516 55.1328C39.1484 55.2109 38.9375 55.2656 38.7188 55.2969C38.5156 55.3125 38.3281 55.3203 38.1562 55.3203C38.0781 55.3203 38 55.3203 37.9219 55.3203C37.8594 55.3047 37.7891 55.2969 37.7109 55.2969C37.6328 55.2969 37.5938 55.3359 37.5938 55.4141C37.5938 55.4922 37.5547 55.5469 37.4766 55.5781C37.3984 55.5469 37.3203 55.5234 37.2422 55.5078C37.1641 55.4922 37.0859 55.4844 37.0078 55.4844C36.8984 55.4844 36.7891 55.4922 36.6797 55.5078C36.5859 55.5234 36.4922 55.5312 36.3984 55.5312C36.2734 55.5312 36.1797 55.5156 36.1172 55.4844C36.0703 55.4531 36.0234 55.4219 35.9766 55.3906C35.9453 55.3438 35.9062 55.2969 35.8594 55.25C35.8281 55.2031 35.7734 55.1641 35.6953 55.1328C35.5859 55.0859 35.4922 55.0781 35.4141 55.1094C35.3516 55.1406 35.25 55.0938 35.1094 54.9688C34.9219 54.8125 34.7578 54.625 34.6172 54.4062C34.4922 54.1719 34.3672 53.9297 34.2422 53.6797C34.1172 53.4297 33.9844 53.1797 33.8438 52.9297C33.7031 52.6797 33.5391 52.4609 33.3516 52.2734H33.1641C32.8828 52.2734 32.6875 52.3906 32.5781 52.625C32.5 52.5781 32.4219 52.5234 32.3438 52.4609C32.2656 52.3828 32.1797 52.3203 32.0859 52.2734C31.7266 52.3828 31.3516 52.4766 30.9609 52.5547C30.5703 52.6328 30.1797 52.6719 29.7891 52.6719H29.4609C29.3672 52.6719 29.2656 52.6562 29.1562 52.625C29 52.6875 28.8594 52.7656 28.7344 52.8594C28.6094 52.9375 28.4688 52.9766 28.3125 52.9766C28.2188 52.9766 28.1094 52.9453 27.9844 52.8828C27.8906 52.8828 27.8438 52.9219 27.8438 53C27.8594 53.0781 27.8125 53.1172 27.7031 53.1172H27.4922C27.2734 53.1172 27.0547 53.125 26.8359 53.1406C26.6328 53.1562 26.4219 53.1641 26.2031 53.1641C25.9062 53.1641 25.6016 53.125 25.2891 53.0469C25.2109 53.0938 25.125 53.1172 25.0312 53.1172C24.9688 53.1484 24.9219 53.2031 24.8906 53.2812C24.8594 53.3438 24.8281 53.4062 24.7969 53.4688C24.7656 53.5156 24.7188 53.5625 24.6562 53.6094C24.6094 53.6406 24.5391 53.6484 24.4453 53.6328C24.4141 53.8203 24.3359 53.9688 24.2109 54.0781C24.0859 54.1875 24.0234 54.3516 24.0234 54.5703C23.8516 54.6641 23.7109 54.7812 23.6016 54.9219C23.4922 55.0625 23.3828 55.2109 23.2734 55.3672C23.1641 55.5234 23.0469 55.6719 22.9219 55.8125C22.8125 55.9531 22.6719 56.0625 22.5 56.1406C22.4219 56.2344 22.3984 56.3828 22.4297 56.5859C22.2578 56.7266 22.0469 56.8516 21.7969 56.9609C21.5469 57.0703 21.3125 57.125 21.0938 57.125C20.6406 57.125 20.3281 56.8828 20.1562 56.3984C20.1562 56.2422 20.1719 56.0781 20.2031 55.9062C20.2188 55.7188 20.25 55.5469 20.2969 55.3906C20.3438 55.2188 20.4141 55.0703 20.5078 54.9453C20.6016 54.8047 20.7344 54.7031 20.9062 54.6406C20.9062 54.5 20.8594 54.4062 20.7656 54.3594C20.6719 54.2969 20.6328 54.1953 20.6484 54.0547C21.0703 53.8516 21.4375 53.5859 21.75 53.2578C22.0625 52.9297 22.3438 52.5859 22.5938 52.2266C22.8594 51.8516 23.125 51.4766 23.3906 51.1016C23.6562 50.7266 23.9531 50.3906 24.2812 50.0938V49.6016C24.75 49.1016 25.0547 48.5391 25.1953 47.9141C25.3672 47.8828 25.4766 47.8047 25.5234 47.6797C25.5859 47.5547 25.6172 47.4062 25.6172 47.2344C25.6953 47.2344 25.7422 47.2031 25.7578 47.1406C25.7891 47.0625 25.8594 47.0391 25.9688 47.0703C26.1094 46.6953 26.2656 46.3516 26.4375 46.0391C26.6094 45.7266 26.7812 45.4141 26.9531 45.1016C27.125 44.7734 27.2734 44.4375 27.3984 44.0938C27.5391 43.75 27.6406 43.3672 27.7031 42.9453C27.9219 42.9297 28.0391 42.8281 28.0547 42.6406C28.0859 42.4375 28.1172 42.2578 28.1484 42.1016C28.3828 41.8828 28.5547 41.625 28.6641 41.3281C28.7891 41.0312 28.8984 40.7266 28.9922 40.4141C29.0859 40.0859 29.1875 39.7656 29.2969 39.4531C29.4219 39.125 29.5938 38.8359 29.8125 38.5859V38.5156C29.8125 38.4375 29.7812 38.3906 29.7188 38.375C29.6562 38.3438 29.625 38.2891 29.625 38.2109C29.6406 38.1953 29.6484 38.1797 29.6484 38.1641C29.8359 38.0859 29.9766 37.9609 30.0703 37.7891C30.1641 37.6016 30.3047 37.4688 30.4922 37.3906C30.8203 37.6562 31.1094 37.8203 31.3594 37.8828C31.6094 37.9297 31.9375 37.9688 32.3438 38C32.5469 38.2188 32.6562 38.4844 32.6719 38.7969C32.7031 39.0938 32.7578 39.3906 32.8359 39.6875C32.9609 40.1875 33.0938 40.6797 33.2344 41.1641C33.3906 41.6328 33.5078 42.1172 33.5859 42.6172C33.6328 42.9141 33.7188 43.1953 33.8438 43.4609C33.9688 43.7266 34.0547 44 34.1016 44.2812C34.1328 44.5 34.1328 44.75 34.1016 45.0312C34.0703 45.2969 34.1016 45.5312 34.1953 45.7344L34.3594 46.1094C34.4375 46.2812 34.5 46.4609 34.5469 46.6484C34.6094 46.8359 34.6641 47.0234 34.7109 47.2109C34.8359 47.6797 34.9453 48.1875 35.0391 48.7344C35.1484 49.2656 35.3125 49.75 35.5312 50.1875C35.6094 50.3438 35.7266 50.4531 35.8828 50.5156C36.0547 50.5781 36.2422 50.625 36.4453 50.6562C36.6484 50.6719 36.8438 50.6797 37.0312 50.6797C37.2344 50.6641 37.4062 50.6562 37.5469 50.6562H37.7812C37.875 50.6562 37.9688 50.6719 38.0625 50.7031C38.125 50.8281 38.1562 50.9375 38.1562 51.0312C38.1562 51.2188 38.0938 51.3672 37.9688 51.4766C37.8438 51.5859 37.7812 51.7109 37.7812 51.8516C37.7812 51.9297 37.8125 52.0156 37.875 52.1094C37.8125 52.0938 37.7188 52.0859 37.5938 52.0859C37.2344 52.0859 36.8828 52.1484 36.5391 52.2734C36.6641 52.5391 36.8281 52.7656 37.0312 52.9531C37.25 53.125 37.4766 53.2891 37.7109 53.4453C37.8672 53.3203 38.0312 53.2578 38.2031 53.2578C38.3906 53.2578 38.5625 53.3047 38.7188 53.3984C38.8906 53.4766 39.0703 53.5156 39.2578 53.5156C39.3984 53.5156 39.5 53.4922 39.5625 53.4453C39.6875 53.5859 39.7891 53.7344 39.8672 53.8906C39.9453 54.0312 40.0469 54.1641 40.1719 54.2891ZM32.8359 50.5391C32.8047 50.2734 32.75 50.0859 32.6719 49.9766C32.6094 49.8516 32.5547 49.7031 32.5078 49.5312C32.4453 49.3125 32.3984 49.0781 32.3672 48.8281C32.3516 48.5781 32.3203 48.3359 32.2734 48.1016C32.1641 47.5703 32.0391 47.0391 31.8984 46.5078C31.7734 45.9766 31.6094 45.4609 31.4062 44.9609C31.4688 44.8672 31.5 44.7812 31.5 44.7031V44.6328C31.3594 44.4766 31.2578 44.2891 31.1953 44.0703C31.1328 43.8359 31.0703 43.6094 31.0078 43.3906C30.9609 43.1562 30.8906 42.9453 30.7969 42.7578C30.7188 42.5547 30.5859 42.3906 30.3984 42.2656C30.3516 42.3594 30.3281 42.4688 30.3281 42.5938C30.3281 42.7031 30.3359 42.8047 30.3516 42.8984C30.3828 42.9922 30.3984 43.0938 30.3984 43.2031C30.2422 43.2812 30.125 43.4062 30.0469 43.5781C29.9844 43.7344 29.875 43.8594 29.7188 43.9531C29.5938 44.4531 29.4141 44.9297 29.1797 45.3828C28.9453 45.8203 28.6953 46.2578 28.4297 46.6953C28.1797 47.1328 27.9375 47.5781 27.7031 48.0312C27.4688 48.4688 27.2812 48.9297 27.1406 49.4141C26.9375 49.5547 26.7969 49.7344 26.7188 49.9531C26.6562 50.1719 26.625 50.3906 26.625 50.6094C26.7656 50.6875 26.9219 50.7344 27.0938 50.75C27.2812 50.75 27.4609 50.75 27.6328 50.75C27.8047 50.75 27.9688 50.7656 28.125 50.7969C28.2812 50.8281 28.4219 50.9062 28.5469 51.0312C28.75 50.9688 28.9688 50.9297 29.2031 50.9141C29.4531 50.8828 29.6562 50.8125 29.8125 50.7031C30.125 50.8125 30.4609 50.8672 30.8203 50.8672C31.0078 50.8672 31.1875 50.8516 31.3594 50.8203C31.5469 50.7891 31.7266 50.75 31.8984 50.7031C32.0391 50.7344 32.1484 50.7891 32.2266 50.8672C32.3047 50.9297 32.4219 50.9531 32.5781 50.9375C32.6562 50.875 32.7031 50.8125 32.7188 50.75C32.7344 50.6719 32.7734 50.6016 32.8359 50.5391ZM58.2891 42.9688C58.2891 43.1875 58.2812 43.4062 58.2656 43.625C58.25 43.8438 58.2266 44.0625 58.1953 44.2812C58.0859 44.4375 57.9766 44.5781 57.8672 44.7031C57.7734 44.8125 57.7109 44.9531 57.6797 45.125C57.5078 45.25 57.3125 45.4219 57.0938 45.6406C56.8906 45.8594 56.8047 46.0781 56.8359 46.2969H56.5078C56.3203 46.5781 56.1016 46.8203 55.8516 47.0234C55.6016 47.2266 55.3359 47.4219 55.0547 47.6094L54.2344 48.1484C53.9688 48.3203 53.7188 48.5234 53.4844 48.7578C53.3594 48.7734 53.2578 48.7969 53.1797 48.8281C53.1016 48.8594 53 48.8672 52.875 48.8516C52.3906 49.1641 51.8828 49.4375 51.3516 49.6719C50.8359 49.9062 50.3125 50.1406 49.7812 50.375C49.2656 50.5938 48.75 50.8281 48.2344 51.0781C47.7188 51.3281 47.2266 51.6172 46.7578 51.9453C46.7109 51.9297 46.6484 51.9219 46.5703 51.9219C46.4297 51.9219 46.2891 51.9453 46.1484 51.9922C46.0078 52.0234 45.8672 52.0391 45.7266 52.0391C45.6641 52.0391 45.5781 52.0312 45.4688 52.0156C45.375 52 45.3047 51.9766 45.2578 51.9453C45.1797 51.8984 45.1094 51.8281 45.0469 51.7344C44.9844 51.6406 44.9375 51.5391 44.9062 51.4297C44.875 51.3047 44.8516 51.1875 44.8359 51.0781C44.8203 50.9688 44.8125 50.875 44.8125 50.7969C44.8125 50.7031 44.8203 50.6016 44.8359 50.4922C44.8516 50.3828 44.875 50.2812 44.9062 50.1875C45.3594 50.1562 45.8125 50.0391 46.2656 49.8359C46.7344 49.6328 47.1797 49.4375 47.6016 49.25C47.7109 49.2031 47.7969 49.1484 47.8594 49.0859C47.9375 49.0078 48.0156 48.9453 48.0938 48.8984C48.1719 48.8359 48.2578 48.7812 48.3516 48.7344C48.4453 48.6875 48.5625 48.6641 48.7031 48.6641H48.7734C49.7578 48.2109 50.7188 47.7188 51.6562 47.1875C52.6094 46.6562 53.5547 46.1172 54.4922 45.5703C54.5391 45.4297 54.6094 45.2891 54.7031 45.1484C54.8125 45.0078 54.9141 44.875 55.0078 44.75C55.1016 44.6094 55.1875 44.4688 55.2656 44.3281C55.3438 44.1875 55.3828 44.0469 55.3828 43.9062C55.3828 43.625 55.25 43.3906 54.9844 43.2031H54.8906C54.7031 43.2031 54.5391 43.1797 54.3984 43.1328C54.2578 43.0703 54.125 43.0156 54 42.9688C53.875 42.9062 53.7344 42.8594 53.5781 42.8281C53.4219 42.7812 53.2422 42.7656 53.0391 42.7812C52.9609 42.7188 52.8359 42.6641 52.6641 42.6172C52.4922 42.5703 52.3516 42.5469 52.2422 42.5469C51.6797 42.5469 51.125 42.5859 50.5781 42.6641C50.0312 42.7266 49.4844 42.7656 48.9375 42.7812C48.7969 42.8594 48.6641 42.9297 48.5391 42.9922C48.4141 43.0547 48.2656 43.0859 48.0938 43.0859C48.0156 43.0859 47.9453 43.0859 47.8828 43.0859C47.8203 43.0703 47.75 43.0547 47.6719 43.0391C47.375 43.1641 47.0391 43.2734 46.6641 43.3672C46.2891 43.4453 45.9141 43.5469 45.5391 43.6719C45.1797 43.7812 44.8438 43.9219 44.5312 44.0938C44.2188 44.2656 43.9766 44.5 43.8047 44.7969C43.8047 44.875 43.8203 44.9453 43.8516 45.0078C43.8828 45.0547 43.8984 45.1172 43.8984 45.1953V45.2891C43.8047 45.3828 43.7422 45.4922 43.7109 45.6172C43.6797 45.7266 43.6562 45.8438 43.6406 45.9688C43.625 46.0781 43.6016 46.1953 43.5703 46.3203C43.5547 46.4297 43.5 46.5391 43.4062 46.6484C43.4688 46.8828 43.5 47.1406 43.5 47.4219C43.5 47.7344 43.4766 48.0469 43.4297 48.3594C43.3984 48.6719 43.3828 48.9844 43.3828 49.2969C43.3828 49.5938 43.4141 49.8594 43.4766 50.0938C43.3828 50.1875 43.3438 50.3281 43.3594 50.5156C43.375 50.7031 43.3359 50.8438 43.2422 50.9375C43.2422 51.0625 43.2734 51.1484 43.3359 51.1953C43.4141 51.2422 43.4609 51.3203 43.4766 51.4297C43.4141 51.6953 43.3828 51.9844 43.3828 52.2969C43.3828 52.75 43.4297 53.2109 43.5234 53.6797C43.6328 54.1484 43.7578 54.6094 43.8984 55.0625C44.1484 54.9844 44.4141 54.9219 44.6953 54.875C44.9922 54.8125 45.2734 54.7812 45.5391 54.7812C45.5859 54.7812 45.6328 54.7891 45.6797 54.8047C45.7266 54.8047 45.7734 54.8047 45.8203 54.8047C45.8516 54.9766 45.9141 55.1328 46.0078 55.2734C46.1016 55.4141 46.1875 55.5703 46.2656 55.7422C46.1875 55.8516 46.1172 55.9375 46.0547 56C46.0078 56.0781 45.9844 56.1797 45.9844 56.3047C45.7656 56.3203 45.5859 56.375 45.4453 56.4688C45.3047 56.5781 45.1484 56.6953 44.9766 56.8203H44.8828C44.6172 56.8203 44.3984 56.8672 44.2266 56.9609C44.0547 57.0703 43.8594 57.1875 43.6406 57.3125C43.4531 57.2344 43.2656 57.1953 43.0781 57.1953C42.875 57.1953 42.6719 57.2344 42.4688 57.3125C42.2188 57.2031 42.0156 57.0312 41.8594 56.7969C41.7031 56.5781 41.5703 56.3281 41.4609 56.0469C41.3516 55.7812 41.25 55.5078 41.1562 55.2266C41.0781 54.9453 40.9844 54.6875 40.875 54.4531V54.0781C40.875 53.7188 40.8438 53.375 40.7812 53.0469C40.7344 52.7031 40.7109 52.3516 40.7109 51.9922C40.7109 51.8516 40.7188 51.7031 40.7344 51.5469C40.7656 51.3906 40.8125 51.2422 40.875 51.1016C40.8438 50.9609 40.8281 50.8281 40.8281 50.7031V50.2578C40.8281 49.7891 40.8438 49.3203 40.875 48.8516C40.9219 48.3828 40.9453 47.9141 40.9453 47.4453C40.9453 47.1016 40.9219 46.75 40.875 46.3906C40.7969 46.4219 40.7266 46.4531 40.6641 46.4844C40.6016 46.5156 40.5312 46.5312 40.4531 46.5312C40.375 46.5312 40.2969 46.5234 40.2188 46.5078C40.1562 46.4922 40.0938 46.4766 40.0312 46.4609C39.875 46.3203 39.7656 46.1484 39.7031 45.9453C39.6406 45.7422 39.5547 45.5547 39.4453 45.3828C39.4453 45.0859 39.4922 44.8438 39.5859 44.6562C39.6641 44.4531 39.7656 44.2734 39.8906 44.1172C40.0156 43.9453 40.1406 43.7812 40.2656 43.625C40.4062 43.4688 40.5234 43.2734 40.6172 43.0391H40.7109C40.9609 43.0391 41.2109 42.9609 41.4609 42.8047C41.7109 42.6328 41.9922 42.5469 42.3047 42.5469C42.4141 42.4062 42.5625 42.2891 42.75 42.1953C42.9375 42.0859 43.1328 42 43.3359 41.9375C43.5547 41.875 43.7656 41.8359 43.9688 41.8203C44.1875 41.7891 44.3906 41.7734 44.5781 41.7734C44.6406 41.6641 44.7344 41.5938 44.8594 41.5625C44.9844 41.5156 45.1094 41.4766 45.2344 41.4453C45.375 41.3984 45.5 41.3594 45.6094 41.3281C45.7344 41.2812 45.8359 41.2031 45.9141 41.0938C46.0391 41.125 46.1562 41.1406 46.2656 41.1406C46.4688 41.1406 46.6641 41.1172 46.8516 41.0703C47.0391 41.0078 47.2266 40.9453 47.4141 40.8828C47.6016 40.8047 47.7891 40.7344 47.9766 40.6719C48.1797 40.6094 48.3906 40.5781 48.6094 40.5781C48.6875 40.5781 48.7656 40.5859 48.8438 40.6016C48.9219 40.6016 49 40.6016 49.0781 40.6016C49.2031 40.6016 49.2734 40.5547 49.2891 40.4609C49.3203 40.3672 49.375 40.2969 49.4531 40.25C49.5 40.2656 49.5859 40.2734 49.7109 40.2734C50.0234 40.2734 50.3281 40.25 50.625 40.2031C50.9219 40.1406 51.2266 40.1094 51.5391 40.1094C51.6797 40.1094 51.8203 40.1172 51.9609 40.1328C52.1016 40.1484 52.2422 40.1875 52.3828 40.25C52.4141 40.2031 52.4453 40.1641 52.4766 40.1328C52.5078 40.1016 52.5312 40.0625 52.5469 40.0156C53.3125 40.0625 54.0312 40.2188 54.7031 40.4844C55.3906 40.75 56.1016 40.9844 56.8359 41.1875C56.9297 41.3281 57.0391 41.4531 57.1641 41.5625L57.5625 41.8906C57.7031 42 57.8359 42.1094 57.9609 42.2188C58.0859 42.3281 58.1953 42.4609 58.2891 42.6172V42.9688ZM77.3672 42.9688C77.3672 43.1875 77.3594 43.4062 77.3438 43.625C77.3281 43.8438 77.3047 44.0625 77.2734 44.2812C77.1641 44.4375 77.0547 44.5781 76.9453 44.7031C76.8516 44.8125 76.7891 44.9531 76.7578 45.125C76.5859 45.25 76.3906 45.4219 76.1719 45.6406C75.9688 45.8594 75.8828 46.0781 75.9141 46.2969H75.5859C75.3984 46.5781 75.1797 46.8203 74.9297 47.0234C74.6797 47.2266 74.4141 47.4219 74.1328 47.6094L73.3125 48.1484C73.0469 48.3203 72.7969 48.5234 72.5625 48.7578C72.4375 48.7734 72.3359 48.7969 72.2578 48.8281C72.1797 48.8594 72.0781 48.8672 71.9531 48.8516C71.4688 49.1641 70.9609 49.4375 70.4297 49.6719C69.9141 49.9062 69.3906 50.1406 68.8594 50.375C68.3438 50.5938 67.8281 50.8281 67.3125 51.0781C66.7969 51.3281 66.3047 51.6172 65.8359 51.9453C65.7891 51.9297 65.7266 51.9219 65.6484 51.9219C65.5078 51.9219 65.3672 51.9453 65.2266 51.9922C65.0859 52.0234 64.9453 52.0391 64.8047 52.0391C64.7422 52.0391 64.6562 52.0312 64.5469 52.0156C64.4531 52 64.3828 51.9766 64.3359 51.9453C64.2578 51.8984 64.1875 51.8281 64.125 51.7344C64.0625 51.6406 64.0156 51.5391 63.9844 51.4297C63.9531 51.3047 63.9297 51.1875 63.9141 51.0781C63.8984 50.9688 63.8906 50.875 63.8906 50.7969C63.8906 50.7031 63.8984 50.6016 63.9141 50.4922C63.9297 50.3828 63.9531 50.2812 63.9844 50.1875C64.4375 50.1562 64.8906 50.0391 65.3438 49.8359C65.8125 49.6328 66.2578 49.4375 66.6797 49.25C66.7891 49.2031 66.875 49.1484 66.9375 49.0859C67.0156 49.0078 67.0938 48.9453 67.1719 48.8984C67.25 48.8359 67.3359 48.7812 67.4297 48.7344C67.5234 48.6875 67.6406 48.6641 67.7812 48.6641H67.8516C68.8359 48.2109 69.7969 47.7188 70.7344 47.1875C71.6875 46.6562 72.6328 46.1172 73.5703 45.5703C73.6172 45.4297 73.6875 45.2891 73.7812 45.1484C73.8906 45.0078 73.9922 44.875 74.0859 44.75C74.1797 44.6094 74.2656 44.4688 74.3438 44.3281C74.4219 44.1875 74.4609 44.0469 74.4609 43.9062C74.4609 43.625 74.3281 43.3906 74.0625 43.2031H73.9688C73.7812 43.2031 73.6172 43.1797 73.4766 43.1328C73.3359 43.0703 73.2031 43.0156 73.0781 42.9688C72.9531 42.9062 72.8125 42.8594 72.6562 42.8281C72.5 42.7812 72.3203 42.7656 72.1172 42.7812C72.0391 42.7188 71.9141 42.6641 71.7422 42.6172C71.5703 42.5703 71.4297 42.5469 71.3203 42.5469C70.7578 42.5469 70.2031 42.5859 69.6562 42.6641C69.1094 42.7266 68.5625 42.7656 68.0156 42.7812C67.875 42.8594 67.7422 42.9297 67.6172 42.9922C67.4922 43.0547 67.3438 43.0859 67.1719 43.0859C67.0938 43.0859 67.0234 43.0859 66.9609 43.0859C66.8984 43.0703 66.8281 43.0547 66.75 43.0391C66.4531 43.1641 66.1172 43.2734 65.7422 43.3672C65.3672 43.4453 64.9922 43.5469 64.6172 43.6719C64.2578 43.7812 63.9219 43.9219 63.6094 44.0938C63.2969 44.2656 63.0547 44.5 62.8828 44.7969C62.8828 44.875 62.8984 44.9453 62.9297 45.0078C62.9609 45.0547 62.9766 45.1172 62.9766 45.1953V45.2891C62.8828 45.3828 62.8203 45.4922 62.7891 45.6172C62.7578 45.7266 62.7344 45.8438 62.7188 45.9688C62.7031 46.0781 62.6797 46.1953 62.6484 46.3203C62.6328 46.4297 62.5781 46.5391 62.4844 46.6484C62.5469 46.8828 62.5781 47.1406 62.5781 47.4219C62.5781 47.7344 62.5547 48.0469 62.5078 48.3594C62.4766 48.6719 62.4609 48.9844 62.4609 49.2969C62.4609 49.5938 62.4922 49.8594 62.5547 50.0938C62.4609 50.1875 62.4219 50.3281 62.4375 50.5156C62.4531 50.7031 62.4141 50.8438 62.3203 50.9375C62.3203 51.0625 62.3516 51.1484 62.4141 51.1953C62.4922 51.2422 62.5391 51.3203 62.5547 51.4297C62.4922 51.6953 62.4609 51.9844 62.4609 52.2969C62.4609 52.75 62.5078 53.2109 62.6016 53.6797C62.7109 54.1484 62.8359 54.6094 62.9766 55.0625C63.2266 54.9844 63.4922 54.9219 63.7734 54.875C64.0703 54.8125 64.3516 54.7812 64.6172 54.7812C64.6641 54.7812 64.7109 54.7891 64.7578 54.8047C64.8047 54.8047 64.8516 54.8047 64.8984 54.8047C64.9297 54.9766 64.9922 55.1328 65.0859 55.2734C65.1797 55.4141 65.2656 55.5703 65.3438 55.7422C65.2656 55.8516 65.1953 55.9375 65.1328 56C65.0859 56.0781 65.0625 56.1797 65.0625 56.3047C64.8438 56.3203 64.6641 56.375 64.5234 56.4688C64.3828 56.5781 64.2266 56.6953 64.0547 56.8203H63.9609C63.6953 56.8203 63.4766 56.8672 63.3047 56.9609C63.1328 57.0703 62.9375 57.1875 62.7188 57.3125C62.5312 57.2344 62.3438 57.1953 62.1562 57.1953C61.9531 57.1953 61.75 57.2344 61.5469 57.3125C61.2969 57.2031 61.0938 57.0312 60.9375 56.7969C60.7812 56.5781 60.6484 56.3281 60.5391 56.0469C60.4297 55.7812 60.3281 55.5078 60.2344 55.2266C60.1562 54.9453 60.0625 54.6875 59.9531 54.4531V54.0781C59.9531 53.7188 59.9219 53.375 59.8594 53.0469C59.8125 52.7031 59.7891 52.3516 59.7891 51.9922C59.7891 51.8516 59.7969 51.7031 59.8125 51.5469C59.8438 51.3906 59.8906 51.2422 59.9531 51.1016C59.9219 50.9609 59.9062 50.8281 59.9062 50.7031V50.2578C59.9062 49.7891 59.9219 49.3203 59.9531 48.8516C60 48.3828 60.0234 47.9141 60.0234 47.4453C60.0234 47.1016 60 46.75 59.9531 46.3906C59.875 46.4219 59.8047 46.4531 59.7422 46.4844C59.6797 46.5156 59.6094 46.5312 59.5312 46.5312C59.4531 46.5312 59.375 46.5234 59.2969 46.5078C59.2344 46.4922 59.1719 46.4766 59.1094 46.4609C58.9531 46.3203 58.8438 46.1484 58.7812 45.9453C58.7188 45.7422 58.6328 45.5547 58.5234 45.3828C58.5234 45.0859 58.5703 44.8438 58.6641 44.6562C58.7422 44.4531 58.8438 44.2734 58.9688 44.1172C59.0938 43.9453 59.2188 43.7812 59.3438 43.625C59.4844 43.4688 59.6016 43.2734 59.6953 43.0391H59.7891C60.0391 43.0391 60.2891 42.9609 60.5391 42.8047C60.7891 42.6328 61.0703 42.5469 61.3828 42.5469C61.4922 42.4062 61.6406 42.2891 61.8281 42.1953C62.0156 42.0859 62.2109 42 62.4141 41.9375C62.6328 41.875 62.8438 41.8359 63.0469 41.8203C63.2656 41.7891 63.4688 41.7734 63.6562 41.7734C63.7188 41.6641 63.8125 41.5938 63.9375 41.5625C64.0625 41.5156 64.1875 41.4766 64.3125 41.4453C64.4531 41.3984 64.5781 41.3594 64.6875 41.3281C64.8125 41.2812 64.9141 41.2031 64.9922 41.0938C65.1172 41.125 65.2344 41.1406 65.3438 41.1406C65.5469 41.1406 65.7422 41.1172 65.9297 41.0703C66.1172 41.0078 66.3047 40.9453 66.4922 40.8828C66.6797 40.8047 66.8672 40.7344 67.0547 40.6719C67.2578 40.6094 67.4688 40.5781 67.6875 40.5781C67.7656 40.5781 67.8438 40.5859 67.9219 40.6016C68 40.6016 68.0781 40.6016 68.1562 40.6016C68.2812 40.6016 68.3516 40.5547 68.3672 40.4609C68.3984 40.3672 68.4531 40.2969 68.5312 40.25C68.5781 40.2656 68.6641 40.2734 68.7891 40.2734C69.1016 40.2734 69.4062 40.25 69.7031 40.2031C70 40.1406 70.3047 40.1094 70.6172 40.1094C70.7578 40.1094 70.8984 40.1172 71.0391 40.1328C71.1797 40.1484 71.3203 40.1875 71.4609 40.25C71.4922 40.2031 71.5234 40.1641 71.5547 40.1328C71.5859 40.1016 71.6094 40.0625 71.625 40.0156C72.3906 40.0625 73.1094 40.2188 73.7812 40.4844C74.4688 40.75 75.1797 40.9844 75.9141 41.1875C76.0078 41.3281 76.1172 41.4531 76.2422 41.5625L76.6406 41.8906C76.7812 42 76.9141 42.1094 77.0391 42.2188C77.1641 42.3281 77.2734 42.4609 77.3672 42.6172V42.9688ZM90.5391 39.875C90.5391 40.0156 90.4766 40.1328 90.3516 40.2266C90.2422 40.3203 90.1875 40.3906 90.1875 40.4375C90.1875 40.5312 90.2031 40.6016 90.2344 40.6484C90.2656 40.6797 90.2812 40.7188 90.2812 40.7656V40.8828C90.125 41.0391 90.0078 41.2109 89.9297 41.3984C89.8516 41.5703 89.7891 41.7578 89.7422 41.9609C89.6953 42.1484 89.6484 42.3438 89.6016 42.5469C89.5703 42.75 89.5234 42.9453 89.4609 43.1328C89.3828 43.3203 89.2812 43.4844 89.1562 43.625C89.0312 43.75 88.9297 43.8984 88.8516 44.0703C88.7266 44.3516 88.6328 44.6406 88.5703 44.9375C88.5078 45.2344 88.375 45.5078 88.1719 45.7578V45.875C88.1562 45.9844 88.1875 46.0781 88.2656 46.1562C87.9688 46.5469 87.7344 47.0156 87.5625 47.5625C87.3906 48.0938 87.25 48.6562 87.1406 49.25C87.0312 49.8281 86.9375 50.4141 86.8594 51.0078C86.7812 51.5859 86.6875 52.1094 86.5781 52.5781C86.6562 52.9219 86.7734 53.25 86.9297 53.5625C87.1016 53.8594 87.2656 54.1719 87.4219 54.5C87.7344 54.5781 88.0312 54.6875 88.3125 54.8281C88.6094 54.9688 88.8203 55.1953 88.9453 55.5078C88.9141 55.8203 88.8125 56.0625 88.6406 56.2344C88.4688 56.4062 88.2578 56.5859 88.0078 56.7734C87.8359 56.7109 87.6953 56.6562 87.5859 56.6094C87.4766 56.5781 87.3125 56.5781 87.0938 56.6094C86.7969 56.375 86.5156 56.1875 86.25 56.0469C86 55.9062 85.7734 55.6641 85.5703 55.3203C85.5391 55.2734 85.4922 55.25 85.4297 55.25H85.2188C85.1406 55.0625 85.0469 54.8672 84.9375 54.6641C84.8281 54.4453 84.7188 54.2266 84.6094 54.0078C84.5 53.7734 84.4062 53.5469 84.3281 53.3281C84.25 53.0938 84.2109 52.8828 84.2109 52.6953C84.2109 51.8984 84.2812 51.1094 84.4219 50.3281C84.5781 49.5312 84.6562 48.7266 84.6562 47.9141V47.6797C84.3438 47.7578 84.0312 47.8672 83.7188 48.0078C83.4219 48.1484 83.1172 48.2578 82.8047 48.3359C82.6953 48.3672 82.6328 48.4219 82.6172 48.5C82.6016 48.5781 82.5547 48.6406 82.4766 48.6875C82.3203 48.7031 82.1719 48.7188 82.0312 48.7344C81.8906 48.7344 81.7578 48.7344 81.6328 48.7344C81.3672 48.7344 81.0859 48.7266 80.7891 48.7109C80.5078 48.6797 80.2266 48.625 79.9453 48.5469C79.6641 48.4688 79.3984 48.3594 79.1484 48.2188C78.9141 48.0781 78.7031 47.8984 78.5156 47.6797C78.4844 47.6953 78.4453 47.7109 78.3984 47.7266C78.3516 47.7422 78.3047 47.75 78.2578 47.75C78.2109 47.75 78.1641 47.7422 78.1172 47.7266C78.0703 47.7109 78.0312 47.6953 78 47.6797C77.875 47.5078 77.7734 47.3203 77.6953 47.1172L77.4609 46.5078C77.3828 46.3047 77.2969 46.1094 77.2031 45.9219C77.1094 45.7344 76.9844 45.5625 76.8281 45.4062C76.7812 45.125 76.7578 44.8516 76.7578 44.5859C76.7578 44.3047 76.7812 44.0312 76.8281 43.7656C76.8594 43.5 76.9141 43.2344 76.9922 42.9688C76.9297 42.7812 76.8906 42.5859 76.875 42.3828C76.8438 42.1797 76.8281 41.9766 76.8281 41.7734C76.8281 41.5391 76.8516 41.2969 76.8984 41.0469C76.9453 40.7969 77.0234 40.5703 77.1328 40.3672C77.2422 40.1484 77.3984 39.9688 77.6016 39.8281C77.7891 39.6875 78.0234 39.6172 78.3047 39.6172C78.6172 39.6172 78.9062 39.7031 79.1719 39.875C79.4375 40.0312 79.6953 40.1953 79.9453 40.3672C79.9766 40.5547 80 40.7422 80.0156 40.9297C80.0312 41.1016 80.0391 41.2891 80.0391 41.4922C80.0391 41.8672 80.0156 42.25 79.9688 42.6406C79.9375 43.0156 79.9219 43.3984 79.9219 43.7891C79.9219 44.1953 79.9688 44.5781 80.0625 44.9375C80.1719 45.2812 80.3594 45.6094 80.625 45.9219H80.7188C80.8438 45.9062 80.9531 45.9297 81.0469 45.9922C81.1406 46.0547 81.25 46.0859 81.375 46.0859C81.4844 46.0859 81.5703 46.0469 81.6328 45.9688C81.6953 45.875 81.7734 45.8281 81.8672 45.8281C81.9609 45.8281 82.0312 45.8438 82.0781 45.875C82.125 45.9062 82.1641 45.9219 82.1953 45.9219C82.3672 45.9219 82.5625 45.8594 82.7812 45.7344C83 45.6094 83.1406 45.4688 83.2031 45.3125C83.2656 45.3594 83.3438 45.3828 83.4375 45.3828C83.5625 45.3828 83.6797 45.3438 83.7891 45.2656C83.8984 45.1875 84.0391 45.1484 84.2109 45.1484C84.3047 45.1484 84.3359 45.0938 84.3047 44.9844C84.2891 44.8594 84.3203 44.7812 84.3984 44.75C84.5859 44.6719 84.7891 44.5625 85.0078 44.4219C85.2422 44.2656 85.4297 44.1719 85.5703 44.1406C85.6484 43.9375 85.7422 43.75 85.8516 43.5781C85.9766 43.3906 86.1016 43.2188 86.2266 43.0625C86.2734 42.7031 86.3672 42.3594 86.5078 42.0312C86.6484 41.7031 86.7969 41.375 86.9531 41.0469C87.1094 40.7188 87.2578 40.3906 87.3984 40.0625C87.5391 39.7344 87.6328 39.3906 87.6797 39.0312C87.8516 38.8594 87.9844 38.6719 88.0781 38.4688C88.1875 38.2656 88.2812 38.0625 88.3594 37.8594C88.5156 37.8125 88.7109 37.7891 88.9453 37.7891C89.1797 37.7734 89.3828 37.7656 89.5547 37.7656H89.9531C90 37.8594 90.0625 37.9453 90.1406 38.0234L90.375 38.2578C90.2344 38.4766 90.1641 38.6953 90.1641 38.9141C90.1641 39.0859 90.2031 39.2578 90.2812 39.4297C90.3594 39.5859 90.4453 39.7344 90.5391 39.875ZM109.898 55.1328C109.898 55.2891 109.891 55.4062 109.875 55.4844C109.797 55.5156 109.734 55.5625 109.688 55.625C109.641 55.6719 109.562 55.6875 109.453 55.6719C109.422 55.9062 109.344 56.1016 109.219 56.2578C109.094 56.4141 108.961 56.5547 108.82 56.6797C108.695 56.8203 108.57 56.9609 108.445 57.1016C108.32 57.2578 108.242 57.4531 108.211 57.6875C107.977 57.8125 107.742 57.9766 107.508 58.1797C107.289 58.3984 107.094 58.5469 106.922 58.625C106.797 58.6875 106.664 58.7344 106.523 58.7656C106.383 58.8125 106.242 58.8672 106.102 58.9297C105.648 59.1328 105.18 59.3438 104.695 59.5625C104.227 59.7812 103.734 59.8906 103.219 59.8906H103.055C102.992 59.9531 102.914 59.9922 102.82 60.0078C102.727 60.0391 102.633 60.0625 102.539 60.0781C102.445 60.0938 102.352 60.1172 102.258 60.1484C102.164 60.1797 102.094 60.2266 102.047 60.2891C101.875 60.2266 101.688 60.1953 101.484 60.1953H101.32C101.055 60.2578 100.805 60.3047 100.57 60.3359C100.336 60.3672 100.086 60.3828 99.8203 60.3828C99.3516 60.3828 98.8828 60.3516 98.4141 60.2891C97.9453 60.2266 97.4766 60.1719 97.0078 60.125C96.7109 59.8906 96.4688 59.5938 96.2812 59.2344C96.0938 58.8906 96 58.5234 96 58.1328C96 57.8359 96.0625 57.5547 96.1875 57.2891C96.3125 57.0391 96.4766 56.8125 96.6797 56.6094H96.75C96.8906 56.6094 97.0312 56.5781 97.1719 56.5156C97.3281 56.4531 97.4766 56.4219 97.6172 56.4219C97.7734 56.4219 97.8984 56.4844 97.9922 56.6094C98.1016 56.7344 98.1797 56.8828 98.2266 57.0547C98.2891 57.2266 98.3281 57.3984 98.3438 57.5703C98.3594 57.7578 98.3672 57.9062 98.3672 58.0156C98.5391 58.0938 98.7188 58.1406 98.9062 58.1562C99.1094 58.1719 99.3125 58.1797 99.5156 58.1797C99.7188 58.1797 99.9453 58.1641 100.195 58.1328C100.445 58.1172 100.695 58.0781 100.945 58.0156C101.211 57.9688 101.461 57.9062 101.695 57.8281C101.945 57.75 102.156 57.6484 102.328 57.5234C103.188 57.4453 103.945 57.25 104.602 56.9375C105.258 56.625 105.953 56.2578 106.688 55.8359C106.719 55.6641 106.781 55.5312 106.875 55.4375C106.984 55.3281 107.039 55.1719 107.039 54.9688C107.039 54.9375 107.031 54.9062 107.016 54.875C107.016 54.8281 107.016 54.7891 107.016 54.7578C106.703 54.3672 106.375 54.0234 106.031 53.7266C105.703 53.4297 105.273 53.2344 104.742 53.1406C104.68 53 104.578 52.8984 104.438 52.8359C104.297 52.7578 104.148 52.6875 103.992 52.625C103.836 52.5625 103.688 52.5 103.547 52.4375C103.406 52.3594 103.305 52.2344 103.242 52.0625C102.82 51.9844 102.383 51.8906 101.93 51.7812C101.492 51.6562 101.117 51.4375 100.805 51.125C100.555 51.1094 100.312 51.0625 100.078 50.9844C99.8594 50.8906 99.6406 50.8047 99.4219 50.7266C99.2031 50.6328 98.9766 50.5547 98.7422 50.4922C98.5078 50.4141 98.2656 50.375 98.0156 50.375C97.9531 50.2656 97.8672 50.1797 97.7578 50.1172C97.6484 50.0547 97.5234 50 97.3828 49.9531C97.2578 49.9062 97.1328 49.8594 97.0078 49.8125C96.8984 49.75 96.8125 49.6641 96.75 49.5547C96.6875 49.5703 96.6406 49.6016 96.6094 49.6484C96.5781 49.6953 96.5234 49.7188 96.4453 49.7188H96.3516C96.3203 49.625 96.2578 49.5625 96.1641 49.5312C96.0703 49.4844 96.0156 49.3984 96 49.2734C95.7188 49.2578 95.4609 49.2031 95.2266 49.1094C95.0078 49.0156 94.7969 48.9141 94.5938 48.8047C94.4062 48.6797 94.2109 48.5625 94.0078 48.4531C93.8047 48.3438 93.5781 48.2578 93.3281 48.1953C93.1719 48.0703 93.0234 47.9375 92.8828 47.7969C92.7578 47.6406 92.5938 47.5625 92.3906 47.5625C92.3438 47.5625 92.2578 47.5781 92.1328 47.6094C92.1016 47.3281 91.9844 47.1328 91.7812 47.0234C91.5781 46.8984 91.3594 46.7891 91.125 46.6953C90.9688 46.2891 90.7578 45.9297 90.4922 45.6172C90.2266 45.3047 89.9375 45.0156 89.625 44.75C89.6562 44.6562 89.6719 44.5859 89.6719 44.5391C89.6719 44.3828 89.6328 44.25 89.5547 44.1406C89.4766 44.0156 89.3906 43.9141 89.2969 43.8359C89.0781 43.1328 88.9688 42.4453 88.9688 41.7734C88.9688 40.8359 89.1797 39.9688 89.6016 39.1719C90.0078 38.3594 90.6562 37.75 91.5469 37.3438C91.5625 37.2188 91.6016 37.1094 91.6641 37.0156C91.7422 36.9219 91.7891 36.8125 91.8047 36.6875C91.9453 36.6875 92.0547 36.6562 92.1328 36.5938C92.2109 36.5312 92.2812 36.4688 92.3438 36.4062C92.4219 36.3281 92.5 36.2578 92.5781 36.1953C92.6562 36.1328 92.7578 36.0938 92.8828 36.0781C93.4766 35.5625 94.1094 35.1484 94.7812 34.8359C95.4531 34.5078 96.1406 34.1719 96.8438 33.8281C96.9844 33.7656 97.1016 33.6484 97.1953 33.4766H97.3359C97.4922 33.4766 97.6094 33.4453 97.6875 33.3828C97.7812 33.3047 97.9141 33.2812 98.0859 33.3125C98.1484 33.2188 98.2266 33.1562 98.3203 33.125C98.4297 33.0938 98.5312 33.0703 98.625 33.0547C98.7344 33.0234 98.8359 32.9844 98.9297 32.9375C99.0234 32.8906 99.0859 32.8203 99.1172 32.7266H99.2812C99.5469 32.7266 99.8047 32.6875 100.055 32.6094C100.305 32.5156 100.555 32.4141 100.805 32.3047H100.969C101.281 32.3047 101.57 32.25 101.836 32.1406C102.117 32.0156 102.414 31.9297 102.727 31.8828C102.852 31.8516 102.977 31.8438 103.102 31.8594C103.227 31.875 103.352 31.8828 103.477 31.8828C103.555 31.8828 103.648 31.875 103.758 31.8594C103.867 31.8438 103.945 31.7969 103.992 31.7188H104.039C104.133 31.7188 104.188 31.75 104.203 31.8125C104.219 31.875 104.266 31.9062 104.344 31.9062C104.453 31.9062 104.562 31.8906 104.672 31.8594C104.781 31.8281 104.891 31.8125 105 31.8125C105.469 31.8125 105.93 31.8594 106.383 31.9531C106.852 32.0469 107.312 32.1328 107.766 32.2109C107.797 32.3984 107.875 32.5312 108 32.6094C108.141 32.6875 108.289 32.7578 108.445 32.8203V32.9141C108.445 33.0391 108.477 33.1406 108.539 33.2188C108.477 33.4375 108.367 33.6016 108.211 33.7109C108.055 33.8203 107.883 33.9141 107.695 33.9922C107.773 34.0547 107.82 34.1406 107.836 34.25C107.852 34.3594 107.859 34.4609 107.859 34.5547V34.8359L107.742 34.8125C107.492 34.8125 107.367 34.9297 107.367 35.1641C107.164 35.0391 106.938 34.9609 106.688 34.9297C106.453 34.8984 106.219 34.8828 105.984 34.8828C105.672 34.8828 105.344 34.8984 105 34.9297C104.656 34.9453 104.32 34.9375 103.992 34.9062C103.867 35.0625 103.711 35.1797 103.523 35.2578C103.336 35.3203 103.148 35.3516 102.961 35.3516C102.758 35.3516 102.562 35.3125 102.375 35.2344C102.188 35.1406 102.055 35.0078 101.977 34.8359C101.898 34.8047 101.828 34.7891 101.766 34.7891H101.555C101.305 34.7891 101.055 34.8203 100.805 34.8828C100.57 34.9297 100.328 34.9922 100.078 35.0703C99.8281 35.1328 99.5781 35.2031 99.3281 35.2812C99.0938 35.3438 98.8516 35.3828 98.6016 35.3984C98.5078 35.5234 98.3828 35.6094 98.2266 35.6562C98.0703 35.7031 97.9453 35.7891 97.8516 35.9141C97.5234 35.9766 97.2266 36.0859 96.9609 36.2422C96.6953 36.3828 96.4375 36.5391 96.1875 36.7109L95.4609 37.2031C95.2266 37.3594 94.9609 37.4922 94.6641 37.6016C94.4453 37.8359 94.2422 38.0234 94.0547 38.1641C93.8672 38.3047 93.625 38.4297 93.3281 38.5391C93.1406 38.6016 93.0312 38.6953 93 38.8203C92.9844 38.9453 92.9219 39.0703 92.8125 39.1953C92.7188 39.3047 92.6016 39.3906 92.4609 39.4531C92.3359 39.5 92.2266 39.5859 92.1328 39.7109C92.0547 39.8203 91.9922 39.9531 91.9453 40.1094C91.9141 40.25 91.875 40.3906 91.8281 40.5312C91.7812 40.6719 91.7266 40.8125 91.6641 40.9531C91.6016 41.0781 91.5078 41.1875 91.3828 41.2812C91.3828 41.3438 91.375 41.4062 91.3594 41.4688C91.3594 41.5312 91.3594 41.5859 91.3594 41.6328C91.3594 41.8516 91.3828 42.0781 91.4297 42.3125C91.4922 42.5312 91.5312 42.75 91.5469 42.9688C91.8594 43.5156 92.2266 44.0156 92.6484 44.4688C93.0703 44.9062 93.5234 45.3125 94.0078 45.6875C94.4922 46.0625 94.9922 46.4141 95.5078 46.7422C96.0391 47.0703 96.5625 47.3906 97.0781 47.7031C97.2656 47.6875 97.4375 47.7109 97.5938 47.7734C97.75 47.8203 97.9141 47.8516 98.0859 47.8672C98.2734 48.0078 98.4922 48.1172 98.7422 48.1953L99.4922 48.4297C99.7422 48.5078 99.9844 48.6016 100.219 48.7109C100.453 48.8047 100.648 48.9375 100.805 49.1094C100.883 49.125 100.953 49.1484 101.016 49.1797C101.078 49.1953 101.148 49.2031 101.227 49.2031C101.32 49.2031 101.375 49.1719 101.391 49.1094C102.094 49.375 102.781 49.6719 103.453 50C104.125 50.3125 104.836 50.5547 105.586 50.7266C105.883 50.9766 106.211 51.1953 106.57 51.3828C106.93 51.5703 107.289 51.7656 107.648 51.9688C108.008 52.1562 108.352 52.3672 108.68 52.6016C109.008 52.8203 109.297 53.0859 109.547 53.3984C109.578 53.6953 109.641 53.9844 109.734 54.2656C109.844 54.5312 109.898 54.8203 109.898 55.1328ZM125.789 45.0547C125.727 45.2109 125.664 45.3594 125.602 45.5C125.539 45.6406 125.492 45.7969 125.461 45.9688C125.352 46.0469 125.227 46.1094 125.086 46.1562C124.961 46.1875 124.828 46.2266 124.688 46.2734C124.547 46.3047 124.414 46.3516 124.289 46.4141C124.18 46.4609 124.094 46.5391 124.031 46.6484C123.984 46.8828 123.961 47.1016 123.961 47.3047C123.961 47.5703 124.008 47.7969 124.102 47.9844C124.055 48.125 124.023 48.2734 124.008 48.4297C123.992 48.5859 123.984 48.7344 123.984 48.875C123.984 49.3906 124.047 49.9062 124.172 50.4219C124.297 50.9219 124.367 51.4297 124.383 51.9453C124.383 52.0234 124.375 52.1094 124.359 52.2031C124.344 52.2969 124.336 52.3828 124.336 52.4609C124.336 52.7891 124.461 53.0078 124.711 53.1172C124.664 53.1953 124.641 53.2656 124.641 53.3281C124.641 53.4531 124.656 53.5625 124.688 53.6562C124.719 53.75 124.727 53.8516 124.711 53.9609C124.789 54.1172 124.867 54.2578 124.945 54.3828C125.023 54.4922 125.078 54.6328 125.109 54.8047C125 55.0234 124.867 55.2266 124.711 55.4141C124.555 55.5859 124.445 55.8047 124.383 56.0703C124.32 56.0547 124.25 56.0469 124.172 56.0469C124.062 56.0469 123.977 56.0703 123.914 56.1172C123.852 56.1641 123.797 56.2188 123.75 56.2812C123.719 56.3594 123.68 56.4297 123.633 56.4922C123.586 56.5703 123.523 56.625 123.445 56.6562H123.375C123.297 56.6719 123.227 56.6641 123.164 56.6328C123.117 56.6172 123.07 56.6094 123.023 56.6094C122.992 56.6094 122.93 56.625 122.836 56.6562C122.711 56.5 122.625 56.3125 122.578 56.0938C122.531 55.8906 122.508 55.6875 122.508 55.4844C122.508 55.2656 122.539 55.0703 122.602 54.8984C122.43 54.7578 122.32 54.5469 122.273 54.2656C122.242 53.9844 122.203 53.75 122.156 53.5625C122.031 52.9844 121.883 52.4219 121.711 51.875C121.555 51.3281 121.461 50.7656 121.43 50.1875C121.414 49.9688 121.406 49.7578 121.406 49.5547V48.3359C121.406 48.1328 121.414 47.9375 121.43 47.75C121.43 47.6094 121.438 47.4766 121.453 47.3516C121.484 47.2109 121.5 47.0703 121.5 46.9297C121.5 46.7422 121.438 46.5625 121.312 46.3906C120.203 46.4375 119.148 46.6406 118.148 47C117.164 47.3438 116.18 47.7578 115.195 48.2422C115.133 48.6016 115.094 48.9531 115.078 49.2969C115.062 49.6406 115.055 49.9922 115.055 50.3516V51.3828C115.055 51.7734 115.07 52.1016 115.102 52.3672C115.18 52.8203 115.406 53.1719 115.781 53.4219C116.172 53.6562 116.562 53.8359 116.953 53.9609C116.938 54.1953 116.891 54.3984 116.812 54.5703C116.734 54.7266 116.633 54.875 116.508 55.0156C116.398 55.1406 116.273 55.2656 116.133 55.3906C115.992 55.5156 115.852 55.6562 115.711 55.8125C115.586 55.7344 115.461 55.6797 115.336 55.6484C115.211 55.6172 115.078 55.6016 114.938 55.6016C114.797 55.5859 114.656 55.5703 114.516 55.5547C114.375 55.5391 114.234 55.5078 114.094 55.4609L113.578 54.7578C113.406 54.5234 113.219 54.2891 113.016 54.0547V53.8438C113.016 53.4219 112.938 53.0156 112.781 52.625C112.625 52.2344 112.508 51.8359 112.43 51.4297C112.477 51.2891 112.508 51.1484 112.523 51.0078C112.539 50.8672 112.547 50.7188 112.547 50.5625C112.547 50.25 112.531 49.9453 112.5 49.6484C112.484 49.3516 112.492 49.0547 112.523 48.7578H112.406C112.266 48.7578 112.117 48.7969 111.961 48.875C111.805 48.9375 111.648 49.0156 111.492 49.1094C111.352 49.1875 111.211 49.2656 111.07 49.3438C110.945 49.4062 110.836 49.4375 110.742 49.4375C110.695 49.4375 110.648 49.4297 110.602 49.4141C110.555 49.3984 110.5 49.3906 110.438 49.3906C110.359 49.3906 110.266 49.4219 110.156 49.4844C110.047 49.5469 109.93 49.6172 109.805 49.6953C109.664 49.7578 109.523 49.8203 109.383 49.8828C109.242 49.9453 109.102 49.9766 108.961 49.9766C108.742 49.9766 108.523 49.8828 108.305 49.6953C108.273 49.5703 108.266 49.4531 108.281 49.3438C108.281 49.2344 108.281 49.1172 108.281 48.9922C108.281 48.8672 108.258 48.7344 108.211 48.5938C108.32 48.3906 108.469 48.2344 108.656 48.125C108.828 48 109.016 47.8906 109.219 47.7969C109.406 47.6875 109.602 47.5859 109.805 47.4922C110.008 47.3828 110.18 47.2422 110.32 47.0703H110.461C110.68 47.0703 110.875 47.0234 111.047 46.9297C111.234 46.8359 111.445 46.7969 111.68 46.8125C111.758 46.7812 111.812 46.6641 111.844 46.4609L111.938 46.4844C112.281 46.4844 112.586 46.3672 112.852 46.1328C113.023 45.1641 113.164 44.1875 113.273 43.2031C113.383 42.2188 113.438 41.2344 113.438 40.25C113.438 40.1562 113.406 40.0625 113.344 39.9688C113.312 39.8438 113.297 39.7266 113.297 39.6172V39.2656C113.297 39.0938 113.305 38.9141 113.32 38.7266C113.336 38.5391 113.375 38.3516 113.438 38.1641C113.594 38.0703 113.758 38.0234 113.93 38.0234C114.133 38.0234 114.328 38.0547 114.516 38.1172C114.719 38.1641 114.914 38.2031 115.102 38.2344C115.242 38.375 115.344 38.5312 115.406 38.7031C115.484 38.875 115.531 39.0547 115.547 39.2422C115.562 39.4141 115.562 39.5938 115.547 39.7812C115.547 39.9531 115.547 40.125 115.547 40.2969C115.547 40.6406 115.586 40.9766 115.664 41.3047C115.742 41.6328 115.781 41.9531 115.781 42.2656C115.781 42.3438 115.75 42.4062 115.688 42.4531C115.641 42.4844 115.617 42.5859 115.617 42.7578C115.617 42.9297 115.633 43.1094 115.664 43.2969C115.695 43.4844 115.711 43.6719 115.711 43.8594C115.711 44.0781 115.68 44.3047 115.617 44.5391C115.555 44.7734 115.5 45 115.453 45.2188C116.391 45.1406 117.352 45.0234 118.336 44.8672C119.32 44.7109 120.258 44.4609 121.148 44.1172C121.164 44.0859 121.172 44.0391 121.172 43.9766C121.172 43.8828 121.164 43.7891 121.148 43.6953C121.133 43.6016 121.125 43.5 121.125 43.3906C121.125 43.2031 121.188 43.0547 121.312 42.9453C121.234 42.5078 121.18 42.0703 121.148 41.6328C121.117 41.1953 121.102 40.7578 121.102 40.3203V38.9844C121.102 38.5469 121.094 38.1094 121.078 37.6719C121.203 37.5938 121.336 37.5547 121.477 37.5547C121.648 37.5547 121.805 37.6016 121.945 37.6953C122.102 37.7734 122.281 37.8125 122.484 37.8125C122.625 37.8125 122.742 37.7891 122.836 37.7422C123.008 37.8984 123.125 38.1016 123.188 38.3516C123.25 38.6016 123.305 38.8594 123.352 39.125C123.398 39.3906 123.445 39.6562 123.492 39.9219C123.555 40.1719 123.672 40.375 123.844 40.5312L123.867 40.6016C123.867 40.6641 123.836 40.7109 123.773 40.7422C123.711 40.7734 123.68 40.8359 123.68 40.9297V41.0234C123.742 41.2734 123.789 41.5312 123.82 41.7969C123.852 42.0625 123.875 42.3359 123.891 42.6172C123.922 42.8828 123.961 43.1484 124.008 43.4141C124.055 43.6641 124.141 43.8984 124.266 44.1172C124.344 44.1016 124.445 44.0938 124.57 44.0938C124.883 44.0938 125.125 44.2031 125.297 44.4219C125.484 44.625 125.648 44.8359 125.789 45.0547ZM142.125 42.4297C142.031 42.5703 141.977 42.7266 141.961 42.8984C141.945 43.0703 141.938 43.2266 141.938 43.3672C141.938 43.5547 141.938 43.7422 141.938 43.9297C141.953 44.1016 141.961 44.2734 141.961 44.4453V44.7969C141.93 44.9062 141.883 45.0156 141.82 45.125C141.758 45.2344 141.711 45.3438 141.68 45.4531C141.461 46.0312 141.352 46.6094 141.352 47.1875V47.2344C141.273 47.4219 141.195 47.5938 141.117 47.75C141.055 47.9062 140.992 48.0625 140.93 48.2188C140.867 48.3594 140.82 48.5156 140.789 48.6875C140.758 48.8438 140.75 49.0312 140.766 49.25C140.547 49.7969 140.258 50.2969 139.898 50.75C139.539 51.1875 139.188 51.6406 138.844 52.1094C138.516 52.2344 138.211 52.3984 137.93 52.6016C137.664 52.8047 137.406 53.0312 137.156 53.2812C136.672 53.4375 136.195 53.6172 135.727 53.8203C135.258 54.0234 134.836 54.2969 134.461 54.6406C134.164 54.6719 133.867 54.7188 133.57 54.7812C133.273 54.8438 132.984 54.9375 132.703 55.0625H132.422C132.281 55.0625 132.18 55.0312 132.117 54.9688C131.914 55.0781 131.703 55.1562 131.484 55.2031C131.266 55.2344 131.047 55.25 130.828 55.25C130.547 55.25 130.266 55.2344 129.984 55.2031C129.719 55.1562 129.445 55.1094 129.164 55.0625C129.008 54.8438 128.789 54.6797 128.508 54.5703C128.227 54.4453 127.977 54.3281 127.758 54.2188C127.305 53.5938 126.977 52.9922 126.773 52.4141C126.57 51.8203 126.359 51.1562 126.141 50.4219C126.172 50.2031 126.227 49.9922 126.305 49.7891C126.383 49.5703 126.414 49.3359 126.398 49.0859C126.68 48.2734 127.047 47.5391 127.5 46.8828C127.969 46.2109 128.5 45.5703 129.094 44.9609C129.094 44.8672 129.109 44.7891 129.141 44.7266C129.188 44.6641 129.195 44.5703 129.164 44.4453C129.18 44.4609 129.211 44.4688 129.258 44.4688C129.383 44.4688 129.461 44.4375 129.492 44.375C129.523 44.2969 129.531 44.2109 129.516 44.1172C130.078 43.7578 130.586 43.3438 131.039 42.875C131.508 42.4062 132.039 42.0156 132.633 41.7031C132.68 41.5625 132.758 41.4453 132.867 41.3516C132.977 41.2578 133.062 41.1484 133.125 41.0234C133.625 40.8828 134.078 40.6719 134.484 40.3906C134.891 40.1094 135.32 39.8594 135.773 39.6406C136.023 39.5 136.258 39.4062 136.477 39.3594C136.711 39.2969 136.961 39.2344 137.227 39.1719C137.32 39.1406 137.406 39.1172 137.484 39.1016C137.562 39.0859 137.648 39.0781 137.742 39.0781C138.023 39.0781 138.297 39.1328 138.562 39.2422C138.828 39.3359 139.102 39.3828 139.383 39.3828C139.461 39.3828 139.523 39.3828 139.57 39.3828C139.633 39.3672 139.695 39.3516 139.758 39.3359C140.023 39.6641 140.359 39.9141 140.766 40.0859C140.859 40.3203 140.969 40.5234 141.094 40.6953C141.234 40.8672 141.375 41.0391 141.516 41.2109C141.656 41.3672 141.781 41.5469 141.891 41.75C142.016 41.9375 142.094 42.1641 142.125 42.4297ZM139.781 43.6484C139.781 43.5703 139.773 43.5 139.758 43.4375C139.602 43.3906 139.453 43.3281 139.312 43.25C139.172 43.1719 139.016 43.1328 138.844 43.1328C138.734 43.1328 138.625 43.1562 138.516 43.2031C138.5 43.0938 138.453 43.0156 138.375 42.9688C138.312 42.9219 138.234 42.8828 138.141 42.8516C138.062 42.8047 137.977 42.7734 137.883 42.7578C137.805 42.7266 137.734 42.6797 137.672 42.6172C137.625 42.4922 137.57 42.3672 137.508 42.2422C137.461 42.1016 137.367 42 137.227 41.9375C137.086 42.0781 136.922 42.1953 136.734 42.2891C136.547 42.3672 136.352 42.4453 136.148 42.5234C135.961 42.6016 135.773 42.6953 135.586 42.8047C135.414 42.9141 135.266 43.0469 135.141 43.2031H134.719C134.625 43.375 134.492 43.5078 134.32 43.6016C134.148 43.6797 134 43.7969 133.875 43.9531C133.625 44.0781 133.391 44.2344 133.172 44.4219C132.969 44.5938 132.766 44.7812 132.562 44.9844C132.359 45.1719 132.156 45.3672 131.953 45.5703C131.766 45.7734 131.562 45.9609 131.344 46.1328C131.141 46.5703 130.914 46.9531 130.664 47.2812C130.43 47.5938 130.203 47.9141 129.984 48.2422C129.781 48.5703 129.602 48.9297 129.445 49.3203C129.305 49.6953 129.234 50.1641 129.234 50.7266V50.9609C129.234 51.0391 129.242 51.1172 129.258 51.1953C129.461 51.4141 129.625 51.6484 129.75 51.8984C129.891 52.1484 130.117 52.3281 130.43 52.4375C130.742 52.5625 131.07 52.6172 131.414 52.6016C131.773 52.5859 132.117 52.625 132.445 52.7188C133.195 52.5781 133.914 52.3516 134.602 52.0391C135.305 51.7109 135.969 51.3203 136.594 50.8672C136.688 50.7891 136.797 50.7109 136.922 50.6328C137.047 50.5391 137.148 50.4453 137.227 50.3516C137.305 50.2734 137.367 50.1875 137.414 50.0938C137.477 50 137.539 49.9141 137.602 49.8359C137.727 49.6328 137.867 49.4297 138.023 49.2266C138.18 49.0234 138.344 48.8359 138.516 48.6641C138.594 48.3203 138.695 47.9922 138.82 47.6797C138.945 47.3516 139.07 47.0312 139.195 46.7188C139.32 46.4062 139.422 46.0859 139.5 45.7578C139.594 45.4297 139.641 45.0859 139.641 44.7266C139.641 44.6484 139.633 44.5625 139.617 44.4688C139.617 44.375 139.609 44.2891 139.594 44.2109C139.719 44.0391 139.781 43.8516 139.781 43.6484ZM162.047 42.9688C162.047 43.1875 162.039 43.4062 162.023 43.625C162.008 43.8438 161.984 44.0625 161.953 44.2812C161.844 44.4375 161.734 44.5781 161.625 44.7031C161.531 44.8125 161.469 44.9531 161.438 45.125C161.266 45.25 161.07 45.4219 160.852 45.6406C160.648 45.8594 160.562 46.0781 160.594 46.2969H160.266C160.078 46.5781 159.859 46.8203 159.609 47.0234C159.359 47.2266 159.094 47.4219 158.812 47.6094L157.992 48.1484C157.727 48.3203 157.477 48.5234 157.242 48.7578C157.117 48.7734 157.016 48.7969 156.938 48.8281C156.859 48.8594 156.758 48.8672 156.633 48.8516C156.148 49.1641 155.641 49.4375 155.109 49.6719C154.594 49.9062 154.07 50.1406 153.539 50.375C153.023 50.5938 152.508 50.8281 151.992 51.0781C151.477 51.3281 150.984 51.6172 150.516 51.9453C150.469 51.9297 150.406 51.9219 150.328 51.9219C150.188 51.9219 150.047 51.9453 149.906 51.9922C149.766 52.0234 149.625 52.0391 149.484 52.0391C149.422 52.0391 149.336 52.0312 149.227 52.0156C149.133 52 149.062 51.9766 149.016 51.9453C148.938 51.8984 148.867 51.8281 148.805 51.7344C148.742 51.6406 148.695 51.5391 148.664 51.4297C148.633 51.3047 148.609 51.1875 148.594 51.0781C148.578 50.9688 148.57 50.875 148.57 50.7969C148.57 50.7031 148.578 50.6016 148.594 50.4922C148.609 50.3828 148.633 50.2812 148.664 50.1875C149.117 50.1562 149.57 50.0391 150.023 49.8359C150.492 49.6328 150.938 49.4375 151.359 49.25C151.469 49.2031 151.555 49.1484 151.617 49.0859C151.695 49.0078 151.773 48.9453 151.852 48.8984C151.93 48.8359 152.016 48.7812 152.109 48.7344C152.203 48.6875 152.32 48.6641 152.461 48.6641H152.531C153.516 48.2109 154.477 47.7188 155.414 47.1875C156.367 46.6562 157.312 46.1172 158.25 45.5703C158.297 45.4297 158.367 45.2891 158.461 45.1484C158.57 45.0078 158.672 44.875 158.766 44.75C158.859 44.6094 158.945 44.4688 159.023 44.3281C159.102 44.1875 159.141 44.0469 159.141 43.9062C159.141 43.625 159.008 43.3906 158.742 43.2031H158.648C158.461 43.2031 158.297 43.1797 158.156 43.1328C158.016 43.0703 157.883 43.0156 157.758 42.9688C157.633 42.9062 157.492 42.8594 157.336 42.8281C157.18 42.7812 157 42.7656 156.797 42.7812C156.719 42.7188 156.594 42.6641 156.422 42.6172C156.25 42.5703 156.109 42.5469 156 42.5469C155.438 42.5469 154.883 42.5859 154.336 42.6641C153.789 42.7266 153.242 42.7656 152.695 42.7812C152.555 42.8594 152.422 42.9297 152.297 42.9922C152.172 43.0547 152.023 43.0859 151.852 43.0859C151.773 43.0859 151.703 43.0859 151.641 43.0859C151.578 43.0703 151.508 43.0547 151.43 43.0391C151.133 43.1641 150.797 43.2734 150.422 43.3672C150.047 43.4453 149.672 43.5469 149.297 43.6719C148.938 43.7812 148.602 43.9219 148.289 44.0938C147.977 44.2656 147.734 44.5 147.562 44.7969C147.562 44.875 147.578 44.9453 147.609 45.0078C147.641 45.0547 147.656 45.1172 147.656 45.1953V45.2891C147.562 45.3828 147.5 45.4922 147.469 45.6172C147.438 45.7266 147.414 45.8438 147.398 45.9688C147.383 46.0781 147.359 46.1953 147.328 46.3203C147.312 46.4297 147.258 46.5391 147.164 46.6484C147.227 46.8828 147.258 47.1406 147.258 47.4219C147.258 47.7344 147.234 48.0469 147.188 48.3594C147.156 48.6719 147.141 48.9844 147.141 49.2969C147.141 49.5938 147.172 49.8594 147.234 50.0938C147.141 50.1875 147.102 50.3281 147.117 50.5156C147.133 50.7031 147.094 50.8438 147 50.9375C147 51.0625 147.031 51.1484 147.094 51.1953C147.172 51.2422 147.219 51.3203 147.234 51.4297C147.172 51.6953 147.141 51.9844 147.141 52.2969C147.141 52.75 147.188 53.2109 147.281 53.6797C147.391 54.1484 147.516 54.6094 147.656 55.0625C147.906 54.9844 148.172 54.9219 148.453 54.875C148.75 54.8125 149.031 54.7812 149.297 54.7812C149.344 54.7812 149.391 54.7891 149.438 54.8047C149.484 54.8047 149.531 54.8047 149.578 54.8047C149.609 54.9766 149.672 55.1328 149.766 55.2734C149.859 55.4141 149.945 55.5703 150.023 55.7422C149.945 55.8516 149.875 55.9375 149.812 56C149.766 56.0781 149.742 56.1797 149.742 56.3047C149.523 56.3203 149.344 56.375 149.203 56.4688C149.062 56.5781 148.906 56.6953 148.734 56.8203H148.641C148.375 56.8203 148.156 56.8672 147.984 56.9609C147.812 57.0703 147.617 57.1875 147.398 57.3125C147.211 57.2344 147.023 57.1953 146.836 57.1953C146.633 57.1953 146.43 57.2344 146.227 57.3125C145.977 57.2031 145.773 57.0312 145.617 56.7969C145.461 56.5781 145.328 56.3281 145.219 56.0469C145.109 55.7812 145.008 55.5078 144.914 55.2266C144.836 54.9453 144.742 54.6875 144.633 54.4531V54.0781C144.633 53.7188 144.602 53.375 144.539 53.0469C144.492 52.7031 144.469 52.3516 144.469 51.9922C144.469 51.8516 144.477 51.7031 144.492 51.5469C144.523 51.3906 144.57 51.2422 144.633 51.1016C144.602 50.9609 144.586 50.8281 144.586 50.7031V50.2578C144.586 49.7891 144.602 49.3203 144.633 48.8516C144.68 48.3828 144.703 47.9141 144.703 47.4453C144.703 47.1016 144.68 46.75 144.633 46.3906C144.555 46.4219 144.484 46.4531 144.422 46.4844C144.359 46.5156 144.289 46.5312 144.211 46.5312C144.133 46.5312 144.055 46.5234 143.977 46.5078C143.914 46.4922 143.852 46.4766 143.789 46.4609C143.633 46.3203 143.523 46.1484 143.461 45.9453C143.398 45.7422 143.312 45.5547 143.203 45.3828C143.203 45.0859 143.25 44.8438 143.344 44.6562C143.422 44.4531 143.523 44.2734 143.648 44.1172C143.773 43.9453 143.898 43.7812 144.023 43.625C144.164 43.4688 144.281 43.2734 144.375 43.0391H144.469C144.719 43.0391 144.969 42.9609 145.219 42.8047C145.469 42.6328 145.75 42.5469 146.062 42.5469C146.172 42.4062 146.32 42.2891 146.508 42.1953C146.695 42.0859 146.891 42 147.094 41.9375C147.312 41.875 147.523 41.8359 147.727 41.8203C147.945 41.7891 148.148 41.7734 148.336 41.7734C148.398 41.6641 148.492 41.5938 148.617 41.5625C148.742 41.5156 148.867 41.4766 148.992 41.4453C149.133 41.3984 149.258 41.3594 149.367 41.3281C149.492 41.2812 149.594 41.2031 149.672 41.0938C149.797 41.125 149.914 41.1406 150.023 41.1406C150.227 41.1406 150.422 41.1172 150.609 41.0703C150.797 41.0078 150.984 40.9453 151.172 40.8828C151.359 40.8047 151.547 40.7344 151.734 40.6719C151.938 40.6094 152.148 40.5781 152.367 40.5781C152.445 40.5781 152.523 40.5859 152.602 40.6016C152.68 40.6016 152.758 40.6016 152.836 40.6016C152.961 40.6016 153.031 40.5547 153.047 40.4609C153.078 40.3672 153.133 40.2969 153.211 40.25C153.258 40.2656 153.344 40.2734 153.469 40.2734C153.781 40.2734 154.086 40.25 154.383 40.2031C154.68 40.1406 154.984 40.1094 155.297 40.1094C155.438 40.1094 155.578 40.1172 155.719 40.1328C155.859 40.1484 156 40.1875 156.141 40.25C156.172 40.2031 156.203 40.1641 156.234 40.1328C156.266 40.1016 156.289 40.0625 156.305 40.0156C157.07 40.0625 157.789 40.2188 158.461 40.4844C159.148 40.75 159.859 40.9844 160.594 41.1875C160.688 41.3281 160.797 41.4531 160.922 41.5625L161.32 41.8906C161.461 42 161.594 42.1094 161.719 42.2188C161.844 42.3281 161.953 42.4609 162.047 42.6172V42.9688Z" fill="#319DFF"/>
<g clip-path="url(#clip0_4710_36905)">
<path d="M149.23 27.0688C144.218 27.0688 140.141 22.992 140.141 17.9802C140.141 12.9688 144.218 8.8916 149.23 8.8916C154.241 8.8916 158.318 12.9688 158.318 17.9802C158.318 22.992 154.241 27.0688 149.23 27.0688Z" fill="#FFAA04"/>
<path d="M146.721 7.15695C146.606 7.15695 146.495 7.10676 146.419 7.01627C146.325 6.90405 146.3 6.74875 146.355 6.61282L148.864 0.444425C148.924 0.295846 149.069 0.198242 149.23 0.198242C149.391 0.198242 149.535 0.295846 149.596 0.444425L152.104 6.61282C152.16 6.74875 152.135 6.90405 152.04 7.01627C151.946 7.12849 151.797 7.17986 151.654 7.14786C150.056 6.79972 148.403 6.79972 146.805 7.14786C146.777 7.15418 146.749 7.15695 146.721 7.15695Z" fill="#FFAA04"/>
<path d="M149.23 35.7625C149.069 35.7625 148.924 35.6653 148.864 35.5163L146.355 29.3479C146.3 29.212 146.325 29.0567 146.419 28.9445C146.513 28.8323 146.662 28.7817 146.805 28.8129C148.403 29.1614 150.056 29.1614 151.654 28.8129C151.798 28.7813 151.947 28.8327 152.041 28.9445C152.135 29.0563 152.16 29.212 152.105 29.3479L149.596 35.5163C149.535 35.6653 149.391 35.7625 149.23 35.7625Z" fill="#FFAA04"/>
<path d="M138.011 20.8847C137.961 20.8847 137.911 20.8752 137.862 20.8559L131.694 18.347C131.545 18.2862 131.448 18.1415 131.448 17.9807C131.448 17.8199 131.545 17.6752 131.694 17.6148L137.863 15.1063C137.998 15.051 138.154 15.0755 138.266 15.1699C138.378 15.2644 138.429 15.4134 138.398 15.5564C138.223 16.355 138.135 17.171 138.135 17.9807C138.135 18.7904 138.223 19.606 138.398 20.4054C138.429 20.5484 138.378 20.6974 138.266 20.7918C138.193 20.8531 138.103 20.8847 138.011 20.8847Z" fill="#FFAA04"/>
<path d="M160.448 20.8847C160.357 20.8847 160.266 20.8531 160.194 20.7918C160.082 20.6978 160.031 20.5488 160.062 20.4054C160.236 19.6064 160.325 18.7904 160.325 17.9807C160.325 17.171 160.236 16.355 160.062 15.5564C160.031 15.4134 160.082 15.2644 160.194 15.1699C160.306 15.0755 160.461 15.051 160.597 15.1063L166.766 17.6148C166.915 17.6752 167.012 17.8199 167.012 17.9807C167.012 18.1415 166.915 18.2862 166.766 18.3466L160.597 20.8555C160.549 20.8748 160.499 20.8847 160.448 20.8847Z" fill="#FFAA04"/>
<path d="M139.523 12.2166C139.512 12.2166 139.501 12.2162 139.49 12.2151C139.344 12.2024 139.216 12.11 139.159 11.9752L136.572 5.83961C136.509 5.69143 136.543 5.52032 136.656 5.40652C136.77 5.29271 136.941 5.25992 137.089 5.32196L143.225 7.90983C143.36 7.96674 143.452 8.09398 143.465 8.23979C143.477 8.386 143.408 8.52707 143.284 8.6061C142.596 9.04828 141.957 9.56238 141.384 10.1346C140.812 10.7071 140.297 11.3461 139.856 12.0349C139.783 12.1487 139.657 12.2166 139.523 12.2166Z" fill="#FFAA04"/>
<path d="M161.524 30.67C161.472 30.67 161.42 30.6601 161.37 30.6392L155.235 28.0513C155.1 27.994 155.007 27.8668 154.995 27.721C154.982 27.5748 155.052 27.4337 155.175 27.3543C155.865 26.9113 156.504 26.3968 157.075 25.8258C157.646 25.2552 158.161 24.6154 158.604 23.9259C158.683 23.8026 158.822 23.7327 158.97 23.7457C159.116 23.7579 159.243 23.8508 159.301 23.9856L161.889 30.1207C161.951 30.2689 161.917 30.4404 161.804 30.5538C161.728 30.6301 161.627 30.67 161.524 30.67Z" fill="#FFAA04"/>
<path d="M158.936 12.2164C158.802 12.2164 158.677 12.1488 158.603 12.035C158.16 11.3451 157.646 10.7061 157.075 10.1347C156.503 9.56295 155.864 9.04845 155.175 8.60627C155.051 8.52724 154.982 8.38617 154.995 8.23996C155.007 8.09376 155.1 7.96691 155.235 7.91001L161.37 5.32213C161.517 5.2597 161.689 5.29289 161.803 5.40669C161.917 5.5205 161.95 5.6916 161.888 5.83979L159.3 11.9754C159.243 12.1105 159.115 12.203 158.97 12.2152C158.958 12.216 158.947 12.2164 158.936 12.2164Z" fill="#FFAA04"/>
<path d="M136.935 30.6695C136.833 30.6695 136.731 30.6292 136.656 30.5537C136.542 30.4399 136.509 30.2688 136.571 30.1206L139.159 23.9854C139.216 23.8503 139.343 23.7578 139.489 23.7456C139.635 23.7286 139.776 23.8025 139.855 23.9258C140.298 24.6141 140.812 25.2535 141.384 25.8257C141.955 26.3971 142.594 26.9112 143.284 27.3541C143.408 27.4336 143.477 27.5746 143.464 27.7209C143.452 27.8667 143.359 27.9939 143.225 28.0512L137.089 30.6391C137.039 30.6596 136.987 30.6695 136.935 30.6695Z" fill="#FFAA04"/>
</g>
<defs>
<clipPath id="clip0_4710_36905">
<rect width="36" height="36" fill="white" transform="translate(131.25)"/>
</clipPath>
</defs>
</svg>
