<svg width="16" height="15" viewBox="0 0 16 15" fill="none" xmlns="http://www.w3.org/2000/svg">
<g clip-path="url(#clip0_4710_36917)">
<path d="M7.8665 11.2779C5.77843 11.2779 4.07959 9.57925 4.07959 7.49102C4.07959 5.40294 5.77843 3.7041 7.8665 3.7041C9.95474 3.7041 11.6534 5.40294 11.6534 7.49102C11.6534 9.57925 9.95474 11.2779 7.8665 11.2779Z" fill="#FFAA04"/>
<path d="M6.82136 2.98149C6.77328 2.98149 6.72702 2.96058 6.69541 2.92288C6.65605 2.87612 6.64585 2.81141 6.6689 2.75477L7.71409 0.184607C7.73928 0.122699 7.79954 0.0820312 7.86655 0.0820312C7.93356 0.0820312 7.99382 0.122699 8.01901 0.184607L9.06437 2.75477C9.08742 2.81141 9.07705 2.87612 9.03769 2.92288C8.99851 2.96964 8.93627 2.99104 8.87667 2.9777C8.21066 2.83265 7.52194 2.83265 6.85627 2.9777C6.84474 2.98034 6.83305 2.98149 6.82136 2.98149Z" fill="#FFAA04"/>
<path d="M7.86655 14.9005C7.79954 14.9005 7.73928 14.86 7.71409 14.7979L6.6689 12.2277C6.64585 12.1711 6.65605 12.1064 6.69541 12.0596C6.73476 12.0129 6.79666 11.9918 6.85643 12.0048C7.52211 12.15 8.21083 12.15 8.87683 12.0048C8.9366 11.9916 8.99867 12.013 9.03786 12.0596C9.07721 12.1062 9.08758 12.1711 9.06453 12.2277L8.01918 14.7979C7.99382 14.86 7.93356 14.9005 7.86655 14.9005Z" fill="#FFAA04"/>
<path d="M3.19233 8.70106C3.17142 8.70106 3.15035 8.69711 3.13026 8.68904L0.560096 7.64369C0.498188 7.61833 0.45752 7.55807 0.45752 7.49106C0.45752 7.42405 0.498188 7.36379 0.56026 7.3386L3.13042 6.29341C3.1869 6.27036 3.25177 6.28057 3.29853 6.31992C3.34529 6.35927 3.36636 6.42134 3.35336 6.48094C3.28075 6.8137 3.24387 7.1537 3.24387 7.49106C3.24387 7.82843 3.28075 8.16826 3.35336 8.50134C3.36636 8.56095 3.34529 8.62302 3.29853 8.66237C3.26823 8.68789 3.23053 8.70106 3.19233 8.70106Z" fill="#FFAA04"/>
<path d="M12.5411 8.70106C12.5031 8.70106 12.4652 8.68789 12.4351 8.66237C12.3883 8.62318 12.3672 8.56111 12.3802 8.50134C12.4527 8.16843 12.4896 7.82843 12.4896 7.49106C12.4896 7.1537 12.4527 6.8137 12.3802 6.48094C12.3672 6.42134 12.3883 6.35927 12.4351 6.31992C12.4817 6.28057 12.5464 6.27036 12.6032 6.29341L15.1733 7.3386C15.2354 7.36379 15.2759 7.42405 15.2759 7.49106C15.2759 7.55807 15.2354 7.61833 15.1733 7.64353L12.6032 8.68888C12.5831 8.69695 12.562 8.70106 12.5411 8.70106Z" fill="#FFAA04"/>
<path d="M3.82244 5.08978C3.81783 5.08978 3.81306 5.08961 3.80845 5.08912C3.74753 5.08385 3.69451 5.04532 3.6708 4.98918L2.59252 2.43268C2.5665 2.37094 2.5805 2.29965 2.62775 2.25223C2.67517 2.20481 2.74663 2.19114 2.80821 2.21699L5.3647 3.29528C5.42101 3.31899 5.45954 3.372 5.46464 3.43276C5.46991 3.49368 5.44094 3.55246 5.38956 3.58539C5.10258 3.76963 4.83635 3.98384 4.59777 4.22225C4.35936 4.46082 4.14499 4.72706 3.96091 5.01404C3.93045 5.06146 3.87809 5.08978 3.82244 5.08978Z" fill="#FFAA04"/>
<path d="M12.989 12.7784C12.9674 12.7784 12.9457 12.7742 12.925 12.7655L10.3686 11.6872C10.3123 11.6634 10.2738 11.6103 10.2687 11.5496C10.2634 11.4887 10.2924 11.4299 10.3438 11.3968C10.6311 11.2122 10.8975 10.9979 11.1354 10.7599C11.3733 10.5222 11.5877 10.2556 11.7722 9.9683C11.8053 9.91693 11.8633 9.88779 11.925 9.89322C11.9858 9.89833 12.0388 9.93702 12.0627 9.99317L13.141 12.5495C13.1668 12.6112 13.153 12.6827 13.1056 12.73C13.074 12.7617 13.0318 12.7784 12.989 12.7784Z" fill="#FFAA04"/>
<path d="M11.9109 5.08969C11.8551 5.08969 11.8029 5.06153 11.7723 5.01411C11.5877 4.72664 11.3733 4.4604 11.1354 4.22232C10.8971 3.98407 10.6307 3.7697 10.3438 3.58546C10.2922 3.55253 10.2634 3.49375 10.2687 3.43283C10.2738 3.37191 10.3125 3.31906 10.3686 3.29535L12.925 2.21707C12.9864 2.19105 13.058 2.20488 13.1054 2.2523C13.1528 2.29972 13.1667 2.37101 13.1408 2.43276L12.0625 4.98925C12.0387 5.04556 11.9856 5.08409 11.9249 5.08919C11.9203 5.08952 11.9157 5.08969 11.9109 5.08969Z" fill="#FFAA04"/>
<path d="M2.74378 12.7786C2.70097 12.7786 2.65882 12.7618 2.62737 12.7303C2.57996 12.6829 2.56596 12.6116 2.59214 12.5499L3.67042 9.99353C3.69413 9.93722 3.74715 9.89869 3.8079 9.89359C3.86882 9.88651 3.9276 9.9173 3.96053 9.96867C4.14477 10.2555 4.35915 10.5219 4.59739 10.7603C4.83547 10.9984 5.10171 11.2126 5.38919 11.3972C5.44056 11.4302 5.46954 11.489 5.46427 11.5499C5.459 11.6107 5.42047 11.6637 5.36433 11.6876L2.80783 12.7659C2.78708 12.7744 2.76551 12.7786 2.74378 12.7786Z" fill="#FFAA04"/>
</g>
<defs>
<clipPath id="clip0_4710_36917">
<rect width="15" height="15" fill="white" transform="translate(0.375)"/>
</clipPath>
</defs>
</svg>
